# xmcd
#
# Track frame offsets: 
#        150
#        18717
#        38848
#        54218
#        72334
#        95019
#        109999
#        127261
#        146843
#        167564
#        182394
#        198504
#        216040
#        235302
#
# Disc length: 3498 seconds
#
# Revision: 0
# Processed by: cddbd v1.5.2PL0 Copyright (c) Steve Scherf et al.
# Submitted via: ExactAudioCopy v1.2
#
DISCID=cf0da80e
DTITLE=Charlie Landsborough - With You In Mind and Further Down The Road
DTITLE=, CD1
DYEAR=2010
DGENRE=Country
TTITLE0=No Time At All
TTITLE1=How Do You Do Those Things
TTITLE2=Part Of Me
TTITLE3=Shine Your Light
TTITLE4=The Isle Of Innisfree
TTITLE5=Down To Earth
TTITLE6=I Will Love You All My Life
TTITLE7=Heaven Knows
TTITLE8=If Only
TTITLE9=I Say You
TTITLE10=Irish Waltz
TTITLE11=You Stand All Alone
TTITLE12=I Will Love You All My Life [Live]
TTITLE13=The Isle Of Innisfree [Live]
EXTD=
EXTT0=
EXTT1=
EXTT2=
EXTT3=
EXTT4=
EXTT5=
EXTT6=
EXTT7=
EXTT8=
EXTT9=
EXTT10=
EXTT11=
EXTT12=
EXTT13=
PLAYORDER=
